<svg viewBox="0 0 20 20" xmlns="http://www.w3.org/2000/svg"><g fill="currentColor" data-darkreader-inline-fill="" style="--darkreader-inline-fill:currentColor;"><path d="M8 2a1 1 0 110-2h4a1 1 0 010 2h-1v1.058a8.467 8.467 0 014.668 2.108l.04-.045 1.413-1.414a1 1 0 011.415 1.414L17.12 6.536c-.044.043-.09.082-.14.116A8.5 8.5 0 119 3.058V2H8zm2 3a6.5 6.5 0 100 13 6.5 6.5 0 000-13z"></path><rect x="9" y="7" width="2" height="6" rx="1"></rect><rect x="9" y="11" width="6" height="2" rx="1"></rect></g></svg>