<svg xmlns="http://www.w3.org/2000/svg" width="48" height="48" viewBox="0 0 48 48" fill="none"><path fill-rule="evenodd" clip-rule="evenodd" d="M24 48c13.255 0 24-10.745 24-24S37.255 0 24 0 0 10.745 0 24s10.745 24 24 24z" fill="#fff"/><path fill-rule="evenodd" clip-rule="evenodd" d="M27.976 6.44A18.06 18.06 0 0024 6V4c1.499 0 2.977.165 4.416.49l-.44 1.95zm8.458 1.894L35.19 9.9a18.01 18.01 0 00-3.388-2.126l.867-1.802a20.004 20.004 0 013.765 2.362zm3.763 7.805l1.799-.875a20.009 20.009 0 00-2.376-3.756l-1.561 1.25a18.016 18.016 0 012.138 3.38zM44 23.826l-2 .017a18.042 18.042 0 00-.475-3.972l1.947-.457A19.95 19.95 0 0144 23.826zm-3.708 7.84l1.809.853a19.867 19.867 0 001.434-4.21l-1.953-.429a17.87 17.87 0 01-1.29 3.786zm-3.655 7.837l-1.264-1.55a18.11 18.11 0 002.801-2.855l1.574 1.234a20.114 20.114 0 01-3.11 3.171zm-8.374 1.99l.472 1.943a19.876 19.876 0 004.177-1.526l-.892-1.79a17.877 17.877 0 01-3.757 1.373zm-4.065.506l.022 2h-.064l-.762-.008a20.038 20.038 0 01-3.598-.434l.419-1.956c1.22.261 2.487.399 3.786.399l.197-.001zm-11.231-3.777l-1.227 1.58a20.003 20.003 0 003.79 2.32l.849-1.811a17.996 17.996 0 01-3.412-2.089zm-6.864-5.29l1.788-.894a18.02 18.02 0 002.176 3.358L8.52 36.663a20.02 20.02 0 01-2.418-3.73zm-.098-8.58l-2 .039a20.02 20.02 0 00.576 4.406l1.942-.478a18.02 18.02 0 01-.518-3.967zm-.193-8.678l1.818.834a17.867 17.867 0 00-1.25 3.8L4.421 19.9a19.864 19.864 0 011.39-4.226zm6.666-5.503l-1.281-1.536A20.11 20.11 0 008.12 11.84l1.587 1.217a18.105 18.105 0 012.77-2.886zm6.578-5.554l.493 1.938c-1.31.333-2.564.81-3.742 1.414l-.911-1.78a19.876 19.876 0 014.16-1.572z" fill="#DAE1E6"/><path d="M21.88 29.14a1 1 0 01-.7-.29l-3.42-3.41a1.004 1.004 0 111.38-1.46l2.7 2.71 7.3-7.22a1.002 1.002 0 011.71.705 1 1 0 01-.29.705l-7.93 7.93a1 1 0 01-.75.33z" fill="#DAE1E6"/></svg>